<?xml version="1.0" standalone="no"?>
<!DOCTYPE svg PUBLIC "-//W3C//DTD SVG 20010904//EN"
 "http://www.w3.org/TR/2001/REC-SVG-20010904/DTD/svg10.dtd">
<svg version="1.0" xmlns="http://www.w3.org/2000/svg"
 width="2576.000000pt" height="2576.000000pt" viewBox="0 0 2576.000000 2576.000000"
 preserveAspectRatio="xMidYMid meet">
<metadata>
Created by potrace 1.11, written by Peter Selinger 2001-2013
</metadata>
<g transform="translate(0.000000,2576.000000) scale(0.100000,-0.100000)"
fill="#000000" stroke="none">
<path d="M25720 17790 c-8 -5 -40 -20 -70 -34 -30 -13 -75 -33 -100 -44 -25
-11 -49 -21 -55 -23 -5 -1 -30 -12 -55 -25 -25 -12 -76 -37 -115 -54 -38 -18
-99 -45 -135 -62 -36 -16 -83 -38 -105 -48 -22 -10 -71 -33 -110 -51 -96 -44
-159 -72 -165 -74 -3 0 -45 -20 -93 -43 -49 -23 -90 -42 -92 -42 -2 0 -39 -16
-82 -36 -67 -31 -424 -194 -578 -264 -121 -55 -285 -130 -345 -158 -36 -16
-87 -40 -115 -51 -27 -12 -67 -31 -88 -41 -22 -11 -45 -20 -53 -20 -8 0 -14
-4 -14 -9 0 -5 -10 -11 -23 -15 -13 -3 -81 -33 -151 -66 -70 -33 -129 -60
-131 -60 -3 0 -53 -22 -111 -50 -58 -27 -107 -50 -109 -50 -2 0 -43 -18 -92
-41 -48 -22 -108 -50 -133 -61 -25 -11 -74 -34 -110 -51 -36 -17 -67 -31 -70
-32 -3 -1 -32 -14 -65 -29 -33 -15 -96 -44 -140 -63 -44 -19 -84 -39 -90 -44
-5 -5 -17 -9 -26 -9 -9 0 -22 -7 -29 -15 -7 -8 -16 -12 -21 -9 -5 3 -9 0 -9
-6 0 -6 -5 -8 -10 -5 -6 3 -25 -4 -43 -17 -17 -13 -32 -21 -32 -19 0 2 -31
-10 -68 -27 -38 -18 -70 -32 -73 -32 -6 0 -208 -101 -419 -210 -99 -51 -268
-137 -375 -192 -107 -54 -199 -103 -205 -109 -5 -5 -15 -9 -23 -9 -8 0 -26 -9
-42 -20 -15 -11 -30 -17 -34 -13 -3 3 -6 1 -6 -5 0 -7 -9 -12 -19 -12 -11 0
-21 -3 -23 -7 -3 -8 -47 -31 -248 -132 -47 -23 -92 -47 -100 -51 -25 -14 -218
-113 -330 -169 -58 -29 -112 -56 -120 -61 -8 -5 -49 -26 -90 -47 -41 -20 -78
-41 -81 -46 -3 -5 -9 -8 -13 -8 -3 1 -34 -13 -69 -30 -63 -32 -396 -204 -452
-233 -16 -9 -36 -16 -42 -16 -7 0 -13 -4 -13 -8 0 -4 -16 -15 -35 -24 -40 -18
-42 -16 -16 38 10 21 25 55 34 74 8 19 29 66 46 103 17 38 31 71 31 74 0 13
134 278 142 281 4 2 6 7 3 12 -3 5 0 15 7 22 7 8 47 81 88 163 41 83 80 154
85 158 26 21 -44 -9 -91 -39 -29 -19 -55 -34 -57 -34 -3 0 -66 -36 -142 -80
-76 -44 -141 -80 -146 -80 -5 0 -9 -4 -9 -8 0 -5 -16 -14 -35 -22 -19 -8 -35
-18 -35 -22 0 -5 -4 -6 -10 -3 -5 3 -10 2 -10 -3 0 -5 -8 -12 -17 -15 -18 -6
-94 -48 -103 -57 -3 -3 -21 -13 -40 -24 -102 -55 -147 -81 -169 -98 -13 -10
-28 -18 -32 -18 -5 0 -38 -18 -74 -40 -36 -22 -67 -40 -69 -40 -3 0 -39 -20
-80 -45 -42 -25 -81 -45 -86 -45 -6 0 -10 -4 -10 -10 0 -5 -5 -10 -11 -10 -8
0 -127 -66 -269 -150 -16 -9 -431 -247 -465 -266 -11 -6 -80 -46 -153 -88 -73
-42 -137 -76 -142 -76 -6 0 -10 -4 -10 -10 0 -5 -4 -10 -9 -10 -5 0 -154 -84
-332 -186 -178 -103 -346 -199 -374 -214 -47 -25 -211 -120 -245 -140 -8 -5
-51 -30 -95 -55 -44 -25 -98 -56 -120 -70 -22 -13 -69 -41 -105 -61 -36 -21
-66 -41 -68 -46 -2 -4 -8 -8 -13 -8 -4 0 -65 -34 -134 -75 -69 -41 -129 -75
-135 -75 -5 0 -10 -4 -10 -8 0 -5 -15 -16 -32 -25 -35 -18 -90 -49 -150 -86
-20 -12 -38 -21 -40 -20 -2 2 -13 -5 -25 -16 -12 -10 -42 -30 -67 -44 -24 -15
-71 -42 -103 -61 -32 -19 -67 -39 -78 -46 -11 -6 -90 -53 -175 -104 -85 -51
-168 -100 -185 -110 -16 -9 -88 -52 -160 -95 -71 -43 -145 -86 -164 -97 -19
-11 -59 -35 -88 -54 -29 -19 -55 -34 -57 -34 -2 0 -34 -18 -70 -40 -36 -22
-68 -40 -71 -40 -3 0 -11 -5 -18 -10 -12 -10 -321 -196 -467 -280 -41 -24 -77
-46 -80 -50 -3 -4 -15 -10 -27 -14 -13 -4 -23 -12 -23 -17 0 -5 -5 -9 -10 -9
-6 0 -50 -24 -98 -52 -48 -29 -99 -60 -114 -68 -28 -15 -152 -90 -198 -119
l-25 -16 25 40 c13 22 27 42 30 45 4 3 9 10 11 15 3 9 75 125 129 209 8 13 37
59 65 102 27 44 55 85 62 92 7 7 13 18 13 23 0 5 7 17 16 27 16 17 124 182
124 188 0 2 24 40 54 84 30 44 72 108 93 142 21 35 44 72 50 83 7 11 16 28 19
38 3 9 10 17 15 17 5 0 9 4 9 10 0 5 26 53 58 107 164 275 206 349 204 356 -1
4 2 7 8 7 5 0 10 6 10 14 0 8 3 16 8 18 9 4 41 57 49 81 3 9 9 17 14 17 5 0 9
5 9 11 0 9 26 58 93 172 11 18 29 50 40 72 12 22 24 42 28 45 5 5 81 136 203
355 16 28 33 53 40 57 7 5 6 8 -4 8 -8 0 -98 -47 -200 -105 -101 -58 -186
-105 -188 -105 -2 0 -17 -9 -33 -21 -16 -11 -29 -17 -29 -12 0 4 -4 4 -8 -2
-7 -10 -14 -14 -101 -63 -58 -32 -604 -343 -651 -370 -75 -44 -152 -83 -156
-79 -2 2 5 12 16 22 11 10 20 24 20 31 0 7 6 17 14 21 8 4 15 12 14 16 0 4 27
49 60 100 32 51 74 117 93 147 18 30 36 57 40 60 3 3 15 21 25 40 11 19 29 49
42 67 12 17 22 35 22 41 0 5 7 16 16 23 9 7 20 22 25 34 5 11 26 46 47 77 111
172 172 270 172 279 0 5 4 9 9 9 5 0 13 9 16 21 4 12 14 28 22 37 8 10 68 103
133 207 65 105 125 197 134 207 8 9 12 19 9 22 -4 3 -1 6 5 6 7 0 12 5 12 10
0 6 16 33 35 60 19 28 32 50 28 50 -5 0 -3 4 2 8 12 9 55 69 55 77 0 4 10 21
23 38 12 18 27 41 34 52 10 18 119 193 293 470 32 50 68 108 82 130 14 22 27
45 28 50 2 6 12 19 22 29 10 11 18 26 18 33 0 7 5 13 10 13 6 0 10 4 10 10 0
8 30 58 57 96 15 20 33 50 49 81 9 18 22 37 30 44 8 6 14 16 14 22 0 5 10 24
23 41 24 31 100 155 125 201 7 14 17 25 23 25 5 0 8 3 7 8 -2 4 44 81 100 172
57 91 109 174 115 185 7 11 17 23 22 27 6 5 4 8 -6 8 -8 0 -19 -4 -25 -9 -5
-5 -29 -20 -54 -33 -131 -71 -167 -93 -192 -110 -16 -11 -28 -17 -28 -14 0 3
-16 -6 -36 -19 -20 -14 -43 -25 -50 -25 -8 0 -14 -4 -14 -10 0 -5 -4 -10 -9
-10 -7 0 -60 -28 -111 -60 -37 -23 -309 -175 -344 -193 -22 -10 -46 -25 -54
-33 -7 -8 -17 -14 -21 -14 -7 0 -111 -58 -326 -182 -27 -16 -62 -34 -77 -39
-16 -6 -28 -15 -28 -20 0 -5 -5 -9 -10 -9 -6 0 -105 -54 -220 -120 -115 -66
-214 -120 -220 -120 -5 0 -10 -5 -10 -11 0 -5 -4 -8 -9 -4 -5 3 -12 1 -15 -4
-3 -5 -34 -25 -69 -44 -34 -19 -84 -47 -112 -62 -27 -15 -57 -33 -65 -40 -8
-6 -55 -35 -105 -64 -49 -29 -129 -76 -177 -105 -47 -29 -92 -56 -100 -60 -7
-3 -42 -24 -78 -47 -36 -22 -171 -104 -300 -182 -129 -78 -237 -143 -240 -146
-3 -4 -25 -17 -50 -30 -25 -13 -52 -30 -61 -37 -8 -8 -21 -14 -27 -14 -7 0
-12 -4 -12 -10 0 -5 -4 -10 -9 -10 -5 0 -38 -18 -72 -40 -35 -22 -70 -43 -78
-47 -8 -3 -39 -22 -70 -41 -100 -61 -126 -77 -153 -92 -23 -13 -96 -58 -226
-138 -20 -12 -52 -30 -69 -39 -18 -9 -33 -20 -33 -25 0 -4 -4 -8 -10 -8 -5 0
-73 -39 -152 -86 -78 -48 -155 -94 -170 -103 -15 -9 -77 -46 -138 -83 -61 -38
-116 -68 -121 -68 -5 0 -9 -4 -9 -9 0 -5 -10 -13 -22 -17 -13 -4 -25 -10 -28
-14 -3 -4 -50 -33 -105 -66 -55 -32 -101 -62 -103 -66 -2 -5 -7 -8 -12 -8 -9
0 -126 -67 -150 -86 -8 -6 -35 -23 -60 -36 -61 -34 -179 -106 -210 -127 -14
-10 -45 -28 -70 -42 -25 -13 -47 -27 -50 -30 -3 -4 -23 -16 -46 -27 -22 -11
-46 -28 -53 -36 -7 -9 -17 -14 -21 -11 -5 3 -14 -1 -22 -8 -7 -7 -40 -29 -73
-48 -54 -32 -308 -186 -345 -209 -8 -5 -42 -25 -75 -45 -33 -19 -77 -45 -97
-58 -170 -103 -211 -127 -218 -127 -5 0 -10 -3 -12 -8 -2 -6 -325 -203 -473
-290 -16 -9 -32 -20 -35 -23 -3 -3 -9 -8 -15 -10 -12 -5 -70 -39 -257 -153
-76 -46 -138 -83 -138 -81 0 6 33 84 66 153 19 41 34 75 34 77 0 4 47 109 83
185 11 25 21 47 22 50 0 3 15 37 34 75 149 308 181 376 181 384 0 6 -57 -28
-127 -75 -71 -46 -135 -88 -143 -91 -8 -4 -19 -11 -25 -16 -5 -4 -68 -46 -140
-93 -71 -46 -137 -89 -145 -94 -60 -41 -243 -160 -248 -162 -11 -5 -303 -197
-349 -229 -23 -16 -46 -29 -52 -29 -6 0 -11 -4 -11 -10 0 -5 -7 -10 -15 -10
-8 0 -15 -4 -15 -10 0 -5 -5 -10 -10 -10 -6 0 -16 -5 -23 -11 -7 -5 -57 -39
-112 -75 -181 -117 -378 -246 -498 -326 -65 -43 -122 -78 -127 -78 -6 0 -10
-4 -10 -10 0 -5 -4 -10 -10 -10 -11 0 -103 -62 -108 -72 -2 -5 -7 -8 -12 -8
-4 0 -32 -16 -61 -35 -30 -20 -61 -40 -69 -45 -8 -6 -59 -39 -114 -75 -54 -36
-102 -65 -107 -65 -5 0 -9 -4 -9 -8 0 -5 -12 -15 -27 -23 -23 -12 -159 -98
-203 -129 -83 -57 -383 -250 -390 -250 -4 0 -10 -4 -12 -8 -1 -4 -55 -41 -118
-82 -63 -41 -116 -78 -118 -82 -2 -5 -8 -8 -13 -8 -10 0 -101 -60 -110 -73 -3
-5 -10 -9 -15 -9 -5 0 -99 -60 -209 -132 -242 -159 -409 -268 -432 -281 -10
-5 -20 -12 -23 -15 -3 -3 -43 -30 -90 -60 -47 -30 -87 -57 -90 -60 -10 -10
-45 -31 -63 -36 -9 -4 -17 -9 -17 -13 0 -4 -16 -15 -35 -25 -19 -11 -35 -24
-35 -29 0 -6 -2 -8 -5 -5 -5 5 -241 -144 -272 -171 -7 -6 -17 -11 -23 -11 -5
0 -10 -4 -10 -10 0 -5 -4 -10 -9 -10 -11 0 -165 -101 -169 -112 -2 -4 -8 -6
-13 -2 -5 3 -9 0 -9 -5 0 -6 -6 -11 -13 -11 -7 0 -23 -9 -35 -20 -12 -11 -23
-20 -26 -20 -5 0 -125 -78 -268 -175 -37 -25 -70 -45 -73 -45 -3 0 -11 -5 -18
-11 -7 -5 -82 -55 -167 -111 -85 -56 -233 -152 -328 -215 -95 -62 -177 -113
-182 -113 -6 0 -10 -4 -10 -10 0 -5 -6 -10 -14 -10 -8 0 -16 -3 -18 -7 -3 -9
-145 -103 -154 -103 -3 0 -12 -6 -19 -12 -29 -26 -44 -38 -49 -38 -3 0 -96
-60 -208 -133 -112 -73 -218 -142 -235 -152 -18 -11 -33 -23 -33 -27 0 -4 -5
-8 -11 -8 -9 0 -250 -157 -305 -199 -12 -9 -32 -23 -44 -31 -12 -8 -30 -22
-40 -30 -10 -8 -28 -22 -40 -30 -12 -8 -55 -40 -95 -70 -40 -30 -83 -62 -95
-70 -53 -37 -168 -122 -199 -147 -19 -16 -39 -30 -45 -32 -6 -2 -13 -7 -16
-10 -3 -4 -54 -43 -115 -86 -60 -44 -112 -82 -115 -85 -11 -12 -120 -90 -125
-90 -3 0 -20 -13 -38 -30 -18 -16 -37 -30 -44 -30 -6 0 -13 -3 -15 -8 -4 -10
-126 -102 -144 -109 -18 -7 -18 -23 1 -23 18 0 109 42 113 53 2 4 8 7 12 7 10
0 125 54 390 182 309 150 329 160 336 158 4 -1 10 3 13 8 5 8 65 39 91 47 3 1
75 35 160 77 85 41 232 113 325 158 94 45 251 122 350 170 99 48 239 115 310
149 72 35 139 68 150 74 26 14 76 38 142 67 29 13 53 27 53 32 0 4 6 8 14 8 8
0 63 24 122 54 118 57 265 129 494 238 80 38 152 73 160 78 25 16 64 33 73 32
4 -1 7 2 7 7 0 10 39 27 53 23 4 -1 7 2 7 6 0 5 28 21 63 37 34 16 70 36 80
44 9 8 17 10 17 5 0 -5 4 -4 8 1 4 6 63 39 132 74 69 35 166 85 215 111 50 26
167 87 260 135 94 48 229 118 300 155 72 37 189 98 260 135 72 37 195 101 275
143 80 41 199 103 265 136 66 34 122 63 125 66 3 3 57 31 120 64 203 103 385
198 396 207 6 5 14 6 17 2 4 -3 7 -1 7 6 0 7 4 10 9 6 5 -3 12 -1 15 4 3 5 60
36 125 69 126 63 130 62 83 -12 -13 -22 -34 -58 -46 -80 -59 -108 -88 -160
-101 -180 -8 -13 -12 -26 -8 -29 3 -4 1 -7 -5 -7 -7 0 -12 -7 -12 -15 0 -8 -4
-15 -8 -15 -5 0 -14 -12 -21 -27 -7 -16 -20 -39 -29 -53 -9 -14 -17 -29 -17
-33 0 -4 -7 -12 -15 -17 -8 -5 -11 -10 -7 -10 4 0 -4 -17 -18 -37 -14 -21 -25
-43 -25 -50 0 -7 -4 -13 -10 -13 -5 0 -10 -4 -10 -9 0 -10 60 6 70 18 8 10
144 75 153 73 4 -1 7 2 7 6 0 5 29 22 65 38 36 16 65 32 65 37 0 4 9 7 20 7
11 0 20 4 20 8 0 7 59 34 69 31 2 0 7 3 10 8 3 4 44 28 91 52 109 56 323 169
375 197 22 12 64 34 93 49 29 15 95 51 148 81 53 30 99 54 104 54 5 0 10 3 12
8 2 4 35 23 73 42 39 19 72 38 75 41 5 7 71 43 80 44 3 0 28 14 55 29 131 76
167 96 172 96 4 0 14 6 22 14 9 7 45 29 81 49 36 19 89 49 118 66 29 17 57 31
62 31 6 0 10 4 10 8 0 5 23 19 50 32 28 13 50 27 50 32 0 5 5 6 10 3 6 -3 10
-1 10 4 0 6 5 11 10 11 6 0 29 11 51 26 22 14 55 33 72 43 18 10 175 104 351
210 175 105 323 191 327 191 5 0 9 5 9 10 0 6 5 10 11 10 6 0 29 12 52 28 68
44 81 51 107 64 14 7 27 15 30 18 4 5 314 193 379 230 14 8 50 30 79 48 29 17
57 32 62 32 6 0 10 3 10 8 0 4 10 12 23 18 12 6 114 67 227 135 113 69 216
131 230 139 14 8 48 29 77 47 28 18 56 33 62 33 6 0 11 4 11 9 0 5 12 14 28
20 15 6 71 38 125 71 55 33 103 60 108 60 5 0 9 4 9 9 0 5 9 13 21 16 19 6 79
42 104 63 6 4 15 9 20 11 19 6 100 55 103 63 2 4 8 8 13 8 7 0 40 18 159 90
146 87 220 130 224 130 3 0 24 13 48 29 24 15 75 45 113 66 39 21 108 59 155
85 47 26 116 63 153 84 109 59 141 78 152 86 11 9 77 47 117 67 15 8 30 19 33
24 4 5 21 16 38 24 18 8 41 20 51 27 88 58 171 104 164 91 -3 -4 -37 -63 -77
-130 -39 -67 -71 -125 -71 -128 0 -3 -12 -22 -26 -41 -15 -19 -22 -34 -18 -34
5 0 4 -4 -2 -8 -6 -4 -22 -27 -34 -52 -12 -25 -26 -47 -29 -50 -4 -3 -12 -16
-19 -30 -7 -14 -24 -43 -37 -65 -14 -22 -28 -48 -32 -57 -3 -10 -9 -18 -13
-18 -5 0 -11 -8 -15 -19 -3 -10 -37 -71 -75 -135 -39 -64 -70 -121 -70 -126 0
-6 -4 -10 -10 -10 -5 0 -10 -5 -10 -10 0 -6 -12 -29 -27 -53 -15 -23 -26 -45
-25 -49 1 -5 -3 -8 -8 -8 -6 0 -10 -5 -10 -11 0 -6 -13 -30 -30 -54 -16 -24
-30 -47 -30 -51 0 -4 -11 -22 -26 -41 -14 -18 -21 -33 -17 -33 4 0 3 -4 -2 -8
-12 -7 -39 -53 -88 -142 -63 -117 -96 -178 -137 -255 -52 -98 -105 -195 -129
-238 -10 -18 -37 -70 -62 -117 -24 -47 -46 -87 -50 -90 -3 -3 -11 -20 -18 -37
-8 -18 -18 -33 -23 -33 -5 0 -7 -4 -3 -9 3 -5 0 -15 -7 -23 -7 -7 -28 -42 -46
-78 -18 -36 -50 -96 -71 -135 -21 -38 -57 -106 -81 -150 -23 -44 -48 -89 -55
-100 -32 -54 -25 -55 58 -11 107 56 214 115 252 138 17 10 41 23 55 30 14 7
58 32 98 55 40 24 77 43 82 43 6 0 10 5 10 10 0 6 5 10 11 10 6 0 38 16 72 37
34 20 71 41 82 47 11 6 46 28 78 49 31 20 59 37 62 37 2 0 48 28 102 63 54 35
104 67 111 71 11 7 -19 -45 -107 -184 -9 -14 -21 -31 -28 -38 -7 -7 -13 -19
-13 -26 0 -7 -8 -21 -18 -32 -11 -11 -21 -24 -23 -30 -2 -5 -60 -98 -129 -207
-147 -232 -168 -264 -212 -336 -18 -30 -40 -65 -48 -78 -8 -12 -100 -159 -204
-325 -103 -167 -197 -315 -207 -330 -11 -15 -24 -38 -29 -50 -6 -13 -14 -30
-20 -38 -27 -41 -100 -172 -100 -179 0 -5 -4 -11 -8 -13 -5 -1 -15 -15 -23
-30 -11 -23 -179 -314 -240 -416 -9 -15 -27 -47 -41 -72 -14 -25 -90 -157
-170 -295 -206 -357 -213 -369 -197 -360 8 5 54 35 102 66 49 32 97 61 107 64
10 3 21 13 24 21 3 8 10 12 16 9 5 -3 10 -1 10 4 0 6 4 11 10 11 8 0 67 35
120 70 8 6 85 53 170 105 85 52 162 99 170 104 8 6 58 36 110 68 52 31 97 60
100 63 7 7 42 29 60 37 8 4 38 22 67 40 29 18 54 33 57 33 2 0 32 18 65 40 33
22 65 40 71 40 5 0 10 5 10 11 0 5 4 8 9 4 5 -3 12 -1 16 4 3 5 45 33 93 61
48 28 94 55 102 60 70 43 182 110 185 110 2 0 33 18 69 40 36 22 70 40 76 40
5 0 10 4 10 8 0 5 12 14 28 21 15 7 74 41 132 75 58 35 125 74 150 88 25 14
61 35 80 47 19 11 55 31 80 43 25 13 47 26 50 29 5 6 246 144 360 207 36 19
74 40 85 46 11 6 23 16 27 21 4 6 8 6 8 2 0 -5 13 1 29 12 16 12 32 21 35 21
4 0 23 11 44 24 62 39 247 140 251 137 2 -1 7 1 10 6 3 5 26 20 51 33 25 14
53 31 63 39 9 8 17 11 17 8 0 -4 21 6 48 22 39 25 191 110 423 240 26 14 78
44 115 65 76 44 117 66 184 104 25 14 56 33 70 42 14 9 30 19 35 21 9 4 206
115 245 139 43 26 218 127 240 138 14 7 34 18 45 25 11 7 38 23 60 35 22 12
54 31 70 42 17 11 39 24 50 29 11 5 55 30 98 55 43 25 82 46 87 46 6 0 10 5
10 10 0 6 4 10 9 10 4 0 57 29 117 65 60 35 125 72 144 81 19 10 38 22 41 27
3 4 13 9 22 11 9 1 24 9 34 18 10 8 32 22 48 30 30 15 124 69 574 332 129 75
238 136 242 136 5 0 9 4 9 8 0 5 23 19 50 32 28 13 50 26 50 30 0 3 16 12 35
20 19 8 35 17 35 22 0 4 4 8 9 8 5 0 67 34 136 75 70 41 128 75 130 75 2 0 33
18 70 41 84 51 131 78 170 97 17 9 32 18 35 22 3 4 30 20 60 36 30 16 57 32
60 35 3 3 30 19 60 36 30 16 74 42 97 56 24 15 47 27 53 27 5 0 10 3 10 8 0 4
11 12 25 19 14 6 25 9 25 8 0 -8 -82 -191 -106 -237 -13 -27 -24 -51 -25 -55
-1 -10 -165 -338 -293 -585 -87 -169 -104 -214 -64 -175 7 7 15 13 18 13 3 0
33 19 67 42 34 23 65 42 68 42 7 0 63 39 83 58 7 6 18 12 24 12 5 0 22 9 36
21 45 34 323 209 333 209 5 0 9 3 9 8 0 4 16 16 36 27 19 10 45 27 56 37 12
10 27 18 35 18 7 0 13 4 13 9 0 5 14 14 30 21 17 7 30 16 30 21 0 5 11 11 25
15 14 3 25 10 25 15 0 5 7 9 15 9 8 0 15 5 15 10 0 6 6 10 13 10 7 0 23 9 35
20 12 11 24 20 27 20 3 0 64 38 136 85 71 47 134 85 139 85 6 0 10 4 10 9 0 5
14 14 30 21 17 7 30 16 30 20 0 4 18 15 40 26 22 10 40 22 40 27 0 4 5 7 10 7
6 0 32 15 58 33 26 17 57 37 67 44 19 12 226 145 458 293 60 39 113 70 118 70
5 0 9 5 9 10 0 6 4 10 9 10 5 0 42 21 82 48 40 26 75 45 77 44 3 -2 8 1 11 6
3 5 56 40 116 78 61 37 112 71 115 75 3 3 23 16 45 28 22 12 121 73 220 136
99 63 200 126 225 141 25 15 89 56 143 91 53 34 101 63 107 63 5 0 13 8 19 18
5 9 13 17 18 16 9 -1 12 1 118 68 39 24 123 78 188 119 65 41 131 82 145 91
15 10 34 21 42 25 8 3 17 9 20 13 3 3 27 19 55 35 27 16 54 32 60 37 18 15
250 160 265 166 8 3 20 10 25 14 14 12 398 256 588 373 43 27 83 52 212 135
61 39 118 73 128 76 9 4 17 10 17 15 0 5 7 9 15 9 8 0 15 5 15 10 0 6 5 10 11
10 6 0 30 14 54 30 24 17 48 30 53 30 6 0 12 3 14 8 3 7 325 212 334 212 3 0
10 5 17 11 7 5 80 53 162 104 83 52 164 103 180 113 17 11 53 33 80 50 174
109 345 218 616 394 64 42 126 81 139 88 13 7 29 17 34 22 6 5 83 56 171 113
88 57 167 109 175 114 90 62 213 141 220 141 4 0 10 3 12 8 2 4 35 27 73 52
39 25 76 50 83 57 7 7 18 13 23 13 6 0 17 6 24 13 34 30 43 35 49 30 3 -4 6
-1 6 5 0 6 9 14 20 17 11 3 26 12 32 18 7 7 112 77 233 157 121 80 222 148
223 152 2 5 7 8 12 8 4 0 88 53 187 118 98 66 217 144 266 175 48 31 87 59 87
62 0 8 -23 5 -40 -5z m-2811 -1544 c-2 -2 -65 -43 -139 -91 -74 -48 -141 -95
-147 -103 -7 -9 -13 -13 -13 -9 0 5 -446 -287 -477 -313 -7 -5 -14 -10 -17
-10 -3 0 -56 -32 -118 -71 -159 -101 -157 -99 -163 -99 -3 0 -14 -9 -25 -20
-11 -11 -27 -20 -35 -20 -8 0 -15 -4 -15 -10 0 -5 -4 -10 -9 -10 -9 0 -105
-59 -127 -79 -6 -5 -29 -19 -50 -30 -21 -12 -81 -48 -132 -81 -51 -33 -95 -60
-98 -60 -3 0 -10 -5 -17 -10 -15 -13 -56 -39 -177 -114 -52 -32 -114 -71 -138
-87 -23 -16 -47 -29 -52 -29 -6 0 -10 -4 -10 -8 0 -5 -10 -14 -23 -19 -13 -6
-50 -28 -83 -49 -32 -21 -61 -39 -64 -39 -3 0 -16 -8 -30 -18 -30 -21 -295
-191 -327 -209 -68 -38 -198 -123 -201 -130 -2 -4 -8 -6 -13 -2 -5 3 -9 0 -9
-5 0 -6 -4 -11 -9 -11 -5 0 -37 -18 -70 -40 -33 -22 -65 -40 -71 -40 -5 0 -10
-4 -10 -10 0 -5 -4 -10 -9 -10 -5 0 -46 -24 -90 -52 -44 -29 -107 -69 -138
-89 -32 -20 -124 -78 -205 -130 -184 -117 -185 -118 -244 -154 -27 -16 -53
-33 -59 -38 -5 -5 -75 -50 -155 -100 -80 -51 -163 -105 -185 -120 -22 -15 -46
-27 -53 -27 -7 0 -10 -4 -7 -10 5 -9 -1 -12 -21 -9 -4 0 -10 -3 -13 -8 -3 -5
-42 -32 -86 -60 -44 -29 -85 -57 -92 -63 -7 -5 -15 -10 -18 -10 -3 0 -39 -22
-81 -50 -41 -27 -79 -50 -84 -50 -5 0 -10 -3 -12 -8 -3 -8 -191 -129 -228
-147 -11 -5 -20 -13 -20 -17 0 -5 -4 -8 -10 -8 -5 0 -29 -13 -52 -29 -24 -16
-90 -60 -148 -97 -58 -37 -127 -81 -155 -99 -27 -18 -102 -66 -165 -107 -63
-41 -122 -77 -130 -81 -8 -4 -25 -14 -37 -23 l-23 -16 16 37 c8 20 19 45 24
54 5 9 46 102 91 206 45 105 103 233 130 285 70 138 200 432 194 438 -2 2 -42
-20 -89 -48 -47 -28 -89 -51 -93 -52 -4 0 -19 -8 -33 -18 -14 -10 -53 -33 -85
-51 -33 -18 -62 -35 -65 -38 -3 -3 -21 -14 -40 -25 -65 -35 -125 -69 -242
-137 -64 -38 -121 -69 -127 -69 -6 0 -11 -4 -11 -8 0 -4 -26 -21 -57 -37 -32
-16 -62 -33 -68 -37 -5 -5 -93 -56 -195 -115 -102 -58 -201 -114 -220 -125
-148 -85 -300 -175 -325 -192 -16 -11 -32 -20 -35 -20 -3 1 -14 -4 -25 -11
-11 -7 -126 -74 -255 -148 -129 -74 -270 -156 -312 -181 -43 -25 -78 -43 -78
-40 0 2 -9 -3 -19 -13 -11 -10 -42 -29 -68 -43 -26 -14 -108 -60 -181 -102
-73 -43 -137 -78 -142 -78 -6 0 -10 -4 -10 -10 0 -5 -4 -10 -10 -10 -5 0 -47
-22 -92 -49 -46 -27 -101 -59 -123 -71 -102 -57 -200 -114 -205 -119 -3 -4
-23 -16 -45 -28 -22 -11 -56 -30 -75 -41 -19 -12 -73 -42 -120 -68 -47 -26
-87 -50 -90 -53 -3 -3 -18 -13 -35 -21 -16 -8 -58 -32 -92 -52 -35 -21 -66
-38 -71 -38 -4 0 -13 -5 -20 -12 -11 -11 -62 -41 -162 -97 -19 -10 -39 -19
-44 -19 -5 0 -12 -5 -15 -10 -3 -5 -33 -24 -66 -42 -33 -18 -67 -38 -75 -45
-8 -7 -30 -18 -47 -26 -18 -8 -33 -17 -33 -21 0 -3 -6 -8 -12 -10 -21 -5 -363
-202 -366 -210 -2 -5 -7 -8 -12 -8 -5 0 -74 -38 -155 -85 -80 -47 -165 -96
-188 -109 -23 -13 -81 -46 -129 -75 -48 -28 -91 -51 -97 -51 -6 0 -11 -4 -11
-10 0 -5 -4 -10 -10 -10 -5 0 -49 -23 -97 -51 -83 -49 -254 -150 -298 -176
-11 -7 -27 -15 -35 -19 -8 -4 -17 -10 -20 -13 -5 -6 -198 -125 -235 -145 -11
-6 -34 -21 -52 -33 -17 -13 -34 -23 -38 -23 -3 0 -26 -13 -50 -30 -24 -16 -48
-30 -53 -30 -6 0 -12 -4 -14 -8 -1 -5 -37 -28 -78 -53 -41 -24 -83 -48 -92
-54 -10 -5 -61 -37 -114 -70 -52 -33 -112 -70 -132 -83 -20 -13 -45 -25 -54
-29 -10 -3 -18 -9 -18 -13 0 -4 -8 -10 -17 -14 -10 -3 -38 -19 -63 -35 -25
-16 -81 -51 -125 -77 -44 -26 -81 -51 -83 -56 -2 -4 -8 -8 -13 -8 -5 0 -28
-12 -52 -27 -23 -14 -44 -27 -47 -27 -3 0 -9 -4 -15 -8 -5 -5 -32 -23 -60 -40
-27 -17 -61 -38 -75 -47 -14 -9 -42 -25 -62 -36 -21 -11 -38 -23 -38 -26 0 -4
-12 -12 -27 -18 -29 -11 -64 -32 -73 -42 -3 -3 -15 -11 -28 -18 -23 -12 -23
-12 -7 16 8 15 20 35 25 43 5 8 28 47 51 85 23 39 44 72 48 75 3 3 14 21 24
40 10 19 23 44 30 55 7 11 25 43 42 70 16 28 34 53 40 57 5 4 6 8 1 8 -5 0 -2
8 6 18 22 25 108 171 108 182 0 6 4 10 8 10 5 0 16 15 25 33 9 17 29 53 44 78
16 25 66 108 112 185 46 76 98 162 116 189 18 28 36 60 39 73 4 12 11 22 15
22 4 0 16 18 26 40 10 22 22 40 27 40 4 0 8 4 8 9 0 9 119 213 138 236 17 22
72 116 72 124 0 5 3 11 8 13 6 2 100 150 284 446 9 15 29 48 44 75 15 26 32
47 37 47 6 0 7 3 4 7 -4 3 -1 13 6 22 8 9 47 70 88 136 40 66 77 122 81 123 5
2 8 8 8 13 0 6 20 41 45 79 25 38 45 73 45 79 0 5 6 14 14 18 8 4 14 12 14 16
0 5 24 46 54 92 30 46 47 80 39 76 -71 -32 -87 -40 -94 -48 -5 -4 -12 -9 -15
-9 -29 -6 -51 -18 -56 -30 -3 -8 -15 -14 -26 -14 -11 0 -20 -4 -20 -8 0 -4
-12 -13 -27 -19 -16 -6 -57 -28 -93 -48 -36 -20 -94 -53 -130 -73 -36 -20 -68
-35 -72 -34 -5 1 -8 -2 -8 -6 0 -5 -16 -14 -35 -22 -19 -8 -35 -17 -35 -21 0
-4 -11 -10 -25 -13 -14 -4 -25 -11 -25 -16 0 -6 -5 -10 -11 -10 -6 0 -52 -24
-103 -54 -211 -124 -292 -172 -316 -183 -14 -7 -40 -22 -57 -33 -18 -11 -33
-18 -33 -16 0 7 104 181 112 186 4 3 11 14 15 25 7 17 37 67 151 253 12 20 31
53 42 72 11 19 32 53 45 75 14 22 28 47 32 55 4 8 9 17 12 20 8 7 25 35 56 90
13 25 58 99 99 165 41 66 84 137 95 157 11 21 33 57 48 80 15 24 35 57 44 73
9 17 35 59 57 95 23 36 62 101 88 145 26 44 58 98 72 120 14 22 24 42 23 44
-2 2 1 7 6 10 10 7 29 37 45 71 7 14 18 29 25 33 8 5 11 12 8 17 -3 5 -1 11 5
15 6 3 20 25 31 48 12 23 24 44 28 47 3 3 12 15 19 28 6 12 18 32 25 45 6 12
14 24 17 27 13 13 140 230 140 240 0 5 4 10 8 10 5 0 16 16 25 36 10 19 22 40
27 47 6 7 60 95 121 197 61 102 118 196 127 210 9 14 17 28 17 32 0 3 10 18
22 32 13 14 20 26 17 26 -4 0 1 11 10 25 9 13 16 27 16 30 0 8 -99 -46 -124
-67 -11 -10 -23 -18 -27 -18 -5 0 -25 -11 -46 -25 -21 -14 -45 -30 -53 -35 -8
-5 -31 -20 -51 -33 -58 -39 -269 -167 -274 -167 -2 0 -29 -16 -59 -35 -30 -19
-58 -35 -62 -35 -4 0 -15 -6 -23 -14 -9 -7 -36 -25 -61 -38 -25 -14 -119 -70
-210 -123 -91 -54 -175 -103 -187 -109 -13 -6 -23 -14 -23 -18 0 -5 -5 -8 -10
-8 -6 0 -117 -63 -246 -140 -130 -77 -238 -140 -240 -140 -2 0 -28 -16 -58
-35 -30 -19 -59 -35 -63 -35 -5 0 -18 -7 -28 -15 -11 -9 -74 -47 -140 -85 -66
-38 -125 -74 -132 -80 -7 -5 -14 -10 -17 -10 -3 0 -83 -46 -178 -102 -237
-139 -278 -162 -318 -184 -19 -10 -37 -21 -40 -24 -3 -3 -16 -11 -30 -19 -101
-58 -149 -86 -172 -100 -26 -16 -193 -113 -272 -160 -23 -12 -68 -39 -101 -59
-33 -20 -62 -37 -65 -37 -3 0 -16 -8 -30 -16 -71 -45 -131 -79 -140 -79 -6 0
-10 -4 -10 -8 0 -5 -23 -19 -50 -32 -28 -13 -50 -27 -50 -32 0 -4 -4 -8 -10
-8 -5 0 -50 -24 -100 -54 -49 -30 -90 -51 -90 -48 0 4 -4 2 -8 -3 -6 -10 -28
-23 -132 -83 -19 -11 -112 -65 -207 -121 -95 -55 -176 -101 -182 -101 -5 0
-11 -4 -13 -8 -1 -5 -28 -22 -58 -39 -30 -17 -167 -96 -304 -177 -136 -80
-252 -146 -257 -146 -5 0 -9 -4 -9 -9 0 -5 -11 -12 -24 -15 -14 -3 -31 -12
-38 -19 -8 -6 -27 -19 -43 -28 -17 -9 -82 -47 -145 -84 -63 -38 -133 -78 -154
-89 -22 -12 -49 -29 -60 -38 -11 -10 -24 -18 -28 -18 -5 0 -84 -44 -176 -99
-92 -54 -183 -108 -203 -119 -77 -43 -84 -47 -89 -52 -3 -3 -16 -11 -30 -18
-34 -18 -166 -95 -210 -122 -75 -48 -291 -170 -299 -170 -6 0 -11 -5 -11 -12
0 -6 -3 -9 -6 -5 -3 3 42 85 100 183 58 97 106 181 106 185 0 5 4 9 8 9 5 0
15 12 23 27 8 15 40 69 72 120 31 50 57 96 57 101 0 5 -57 -19 -127 -54 -71
-35 -133 -64 -139 -64 -6 0 -17 -7 -24 -15 -6 -8 -15 -14 -18 -13 -10 3 -779
-377 -1330 -657 -78 -40 -142 -70 -142 -66 0 3 -4 0 -9 -7 -4 -7 -14 -14 -22
-15 -8 -2 -20 -6 -28 -11 -8 -5 -179 -91 -380 -192 -201 -101 -371 -188 -378
-194 -7 -5 -15 -10 -20 -10 -9 0 -564 -279 -579 -291 -6 -5 -14 -6 -17 -2 -4
3 -7 1 -7 -5 0 -7 -3 -11 -7 -10 -5 1 -86 -37 -180 -85 -95 -48 -173 -84 -173
-80 0 5 -4 3 -8 -2 -10 -15 -81 -55 -97 -55 -7 0 -15 -3 -17 -7 -2 -7 -70 -43
-88 -48 -11 -3 -65 -30 -70 -35 -7 -7 -93 -47 -104 -48 -5 0 -12 -4 -15 -9 -3
-4 -73 -42 -156 -83 -82 -41 -153 -79 -157 -85 -4 -5 -8 -6 -8 -2 0 8 -68 -25
-99 -47 -17 -13 -43 -17 -35 -5 3 5 9 7 14 4 4 -3 10 -1 12 3 3 9 145 102 154
102 3 0 11 6 19 13 7 6 46 32 85 57 40 25 114 72 166 105 51 33 146 94 211
135 65 41 139 90 166 108 27 17 51 32 53 32 2 0 44 26 92 57 48 31 117 76 154
100 36 24 71 43 76 43 6 0 12 3 14 8 1 4 35 27 73 52 39 25 72 48 73 52 2 5 8
8 14 8 12 0 122 71 126 82 2 5 9 8 15 8 6 0 37 18 68 40 32 22 62 40 67 40 6
0 12 3 14 8 1 4 35 27 73 52 39 24 73 49 77 55 5 6 8 6 8 0 0 -6 3 -6 8 1 4 6
50 38 102 72 52 33 100 65 107 71 7 6 14 11 16 11 4 0 290 187 304 199 7 6 24
16 38 23 14 6 25 14 25 17 0 4 17 15 37 26 21 11 43 24 48 28 29 23 177 117
185 117 4 0 10 4 12 8 4 11 466 312 478 312 5 0 10 4 12 8 4 11 174 122 186
122 6 0 12 4 14 8 1 5 68 51 148 104 80 52 165 108 189 124 24 16 51 34 60 39
46 29 147 96 156 102 6 5 22 14 38 22 15 8 27 18 27 23 0 4 4 8 10 8 8 0 289
179 325 207 26 20 95 63 102 63 5 0 23 14 42 30 18 17 38 30 43 30 5 0 14 5
21 11 13 11 73 51 317 207 91 59 167 109 170 112 10 11 171 110 179 110 5 0
11 7 15 15 3 8 12 15 21 15 8 0 15 3 15 8 0 4 17 16 37 27 21 11 40 22 43 25
3 3 25 18 50 34 25 16 57 37 71 47 36 24 42 15 19 -29 -17 -34 -61 -130 -65
-142 -1 -3 -14 -32 -29 -65 -52 -114 -145 -334 -152 -359 -3 -14 -10 -26 -16
-26 -5 0 -7 -4 -4 -8 3 -5 -1 -20 -9 -35 -8 -15 -11 -27 -7 -27 4 0 2 -4 -3
-8 -6 -4 -16 -23 -22 -42 -6 -19 -18 -53 -26 -75 -9 -22 -14 -41 -12 -43 1 -2
24 11 51 27 27 17 60 36 74 41 13 6 27 15 30 19 3 4 26 18 53 30 26 13 47 28
47 34 0 5 3 7 6 4 4 -4 19 2 34 13 16 11 31 20 34 20 3 0 30 16 60 35 30 19
60 35 66 35 5 0 10 4 10 9 0 5 10 13 22 17 13 4 39 17 58 29 90 57 311 185
320 185 6 0 10 4 10 8 0 4 12 13 28 19 15 7 56 30 92 52 57 34 130 77 272 159
34 19 83 48 133 79 73 44 180 103 187 103 4 0 8 4 8 9 0 5 8 11 18 15 9 3 24
10 32 15 8 6 65 39 125 74 61 36 166 97 235 138 69 40 134 79 145 85 76 42
102 58 116 70 8 8 19 14 23 14 5 0 56 29 115 64 58 35 121 72 138 82 27 16
303 182 368 221 11 7 27 16 35 20 8 4 20 11 25 16 8 7 308 192 397 246 15 9
89 54 165 101 75 47 142 87 148 89 5 2 12 7 15 11 3 4 23 17 45 29 22 12 54
30 70 40 209 128 303 186 320 195 11 7 39 24 62 39 24 15 47 27 53 27 5 0 10
5 10 10 0 6 4 10 10 10 5 0 34 16 64 35 30 19 59 35 65 35 5 0 11 4 13 8 2 6
111 74 227 142 14 9 52 32 84 53 31 20 60 37 63 37 2 0 28 16 57 35 28 19 57
35 64 35 7 0 13 4 13 9 0 5 8 12 18 15 20 8 47 23 89 54 17 12 34 22 38 22 4
0 30 15 58 33 29 19 106 66 172 106 66 39 127 76 135 81 8 5 84 51 167 102 84
51 161 98 170 103 10 6 70 41 133 80 63 38 126 77 140 85 48 28 191 115 215
130 13 8 50 30 82 49 32 18 60 37 63 40 3 4 20 13 38 20 17 8 32 18 32 23 0 5
4 7 9 4 5 -4 11 -2 13 2 2 7 131 87 250 157 9 5 45 27 78 48 34 20 66 37 71
37 5 0 9 5 9 10 0 6 7 10 15 10 8 0 15 5 15 10 0 6 5 10 10 10 6 0 36 16 67
36 30 19 57 33 60 30 5 -5 -37 -69 -49 -74 -5 -2 -8 -8 -8 -13 0 -5 -42 -73
-93 -151 -213 -327 -253 -389 -266 -415 -8 -16 -20 -32 -28 -36 -7 -4 -13 -12
-13 -18 0 -5 -16 -33 -35 -62 -43 -63 -42 -62 -109 -167 -30 -47 -59 -90 -65
-97 -6 -7 -11 -14 -11 -17 0 -6 -194 -305 -210 -323 -5 -7 -10 -14 -10 -17 0
-2 -26 -44 -58 -93 -86 -130 -128 -197 -130 -206 -1 -4 -7 -14 -15 -21 -12
-12 -30 -41 -122 -190 -11 -18 -31 -51 -44 -74 -14 -23 -28 -42 -33 -42 -4 0
-8 -5 -8 -11 0 -5 -68 -119 -152 -252 -190 -304 -245 -392 -275 -442 -13 -22
-62 -101 -109 -175 -46 -74 -126 -202 -176 -285 -51 -82 -95 -152 -98 -155 -3
-3 -11 -18 -18 -33 -11 -26 -1 -22 163 62 96 49 175 86 175 83 0 -4 4 -2 8 3
4 6 25 20 47 31 22 12 72 38 110 59 39 21 185 96 325 167 140 72 282 145 315
163 240 130 238 129 220 98 -8 -15 -25 -41 -35 -58 -11 -16 -23 -38 -26 -47
-4 -10 -10 -18 -15 -18 -5 0 -9 -7 -9 -15 0 -8 -5 -15 -12 -15 -6 0 -9 -3 -5
-6 3 -4 -5 -21 -18 -39 -14 -17 -25 -35 -25 -39 0 -4 -9 -19 -19 -34 -10 -15
-53 -83 -96 -152 -42 -69 -80 -132 -86 -140 -132 -215 -257 -422 -268 -443 -8
-14 -22 -35 -32 -46 -10 -10 -15 -22 -12 -25 4 -3 1 -6 -6 -6 -7 0 -10 -4 -7
-9 3 -5 -1 -14 -9 -21 -8 -7 -22 -26 -31 -44 -9 -17 -23 -43 -30 -57 -8 -15
-21 -32 -29 -39 -8 -7 -15 -16 -15 -20 0 -7 -242 -407 -259 -426 -5 -6 -17
-26 -26 -45 -10 -19 -42 -71 -72 -117 -29 -45 -53 -85 -53 -88 0 -3 -11 -20
-25 -38 -14 -18 -25 -35 -25 -39 0 -3 -46 -79 -101 -169 -56 -89 -110 -179
-121 -198 -11 -19 -25 -41 -30 -47 -18 -23 3 -14 91 36 47 27 90 50 95 49 5 0
12 4 15 10 3 5 29 21 56 37 82 45 354 203 450 261 50 30 97 57 105 61 8 4 50
29 92 55 43 26 82 48 88 48 5 0 10 5 10 10 0 6 5 10 10 10 6 0 36 16 66 35 30
19 58 35 62 35 4 0 17 7 27 15 19 14 77 50 375 226 69 41 134 79 145 86 11 7
27 15 35 19 8 4 42 25 76 46 34 21 66 38 73 38 6 0 11 4 11 9 0 5 8 11 18 15
9 3 26 11 36 18 70 46 126 77 126 71 0 -4 4 -3 8 2 7 11 63 49 72 50 3 0 16 8
30 16 71 45 85 52 86 48 0 -2 8 4 18 14 10 9 24 17 32 17 8 0 14 5 14 10 0 6
4 10 9 10 5 0 83 44 174 98 90 55 170 102 178 105 8 4 32 18 54 32 22 14 47
28 55 32 8 3 22 12 30 18 8 7 35 24 60 37 25 14 97 56 160 93 176 105 280 166
335 197 28 16 65 38 83 49 117 70 275 163 287 169 34 17 161 96 163 102 2 5 7
6 12 3 4 -3 13 2 20 10 7 8 18 15 24 15 7 0 21 8 32 18 11 9 37 26 59 37 22
11 86 48 142 82 57 35 103 60 103 55 0 -4 4 -2 8 3 4 6 63 44 132 84 69 41
152 90 185 110 33 20 67 40 75 44 8 4 38 21 65 37 28 17 61 36 75 43 14 6 27
15 30 18 6 8 64 44 100 62 38 19 120 68 167 99 23 15 48 28 56 28 9 0 17 4 19
8 4 10 155 102 167 102 5 0 14 7 21 15 7 8 16 12 21 9 5 -3 9 -1 9 4 0 6 17
19 38 30 55 29 99 54 175 100 37 23 69 42 72 42 3 0 29 16 59 35 30 19 60 35
66 35 5 0 10 4 10 9 0 5 8 11 18 14 18 6 93 48 102 57 4 5 234 140 340 201 14
8 36 22 49 31 13 10 27 15 32 12 5 -3 9 -1 9 5 0 5 12 16 28 24 45 23 106 58
120 69 7 7 12 7 12 1 0 -9 -66 -176 -90 -228 -9 -18 -31 -72 -35 -85 -1 -3 -7
-18 -14 -35 -7 -16 -14 -34 -16 -40 -1 -5 -9 -26 -17 -45 -19 -44 -31 -74 -33
-80 0 -3 -10 -25 -21 -50 -11 -25 -29 -67 -39 -95 -10 -27 -22 -54 -25 -60 -4
-5 -10 -23 -14 -40 -4 -16 -13 -33 -19 -37 -6 -4 -8 -10 -4 -14 4 -4 126 52
271 124 145 73 269 132 274 132 6 0 12 3 14 8 3 6 93 54 108 57 3 0 16 7 30
15 26 15 121 62 130 65 7 2 274 136 330 165 25 13 47 24 50 25 11 2 296 147
308 157 6 6 12 7 12 3 0 -5 8 -1 18 8 10 10 22 14 25 10 4 -3 7 -1 7 5 0 7 3
11 8 10 10 -2 65 24 73 35 3 5 8 8 10 6 6 -3 1204 594 1207 603 2 4 9 8 15 8
16 0 721 352 729 364 4 6 8 8 8 4 0 -8 464 223 468 234 2 4 7 6 10 4 4 -2 52
19 107 48 55 28 102 50 104 49 2 -2 2 -5 0 -7z"/>
</g>
</svg>
