<svg 
xmlns:dc="http://purl.org/dc/elements/1.1/" 
xmlns:cc="http://creativecommons.org/ns#"
xmlns:rdf="http://www.w3.org/1999/02/22-rdf-syntax-ns#" 
xmlns:svg="http://www.w3.org/2000/svg" 
xmlns="http://www.w3.org/2000/svg" 
viewBox="0 0 161 62"
 id="gx-logo" class="tronFilter" data-name="gx-logo">
<path d="M0 62.353l8.267-6.083 44.877-29.31-1.372 2.842-1.379 3.087s2.953-1.769 32.522-19.66l12.911-7.295s-5.766 9.208-6.797 10.86c-1.173 1.88-6.736 10.588-6.736 10.588l4.06-2.315 4.576-2.576s-5.364 9.422-6.156 10.423c-.686.997-3.122 4.859-3.122 4.859s18.121-10.784 19.091-11.351c.768-.45 21.129-12.094 21.129-12.094l-1.656 3.178-1.254 2.811 16.752-8.587L161.447 0s-11.754 7.807-15.53 10.187l-27.437 17.27-12.756 8.169s1.689-3.27 2.082-4.072c.43-.843 1.227-2.695 1.227-2.695s-18.907 11.107-26.556 15.32c-11.065 6.094-20.194 11.967-20.194 11.967s4.737-8.225 5.501-9.502c.598-.998 6.056-9.614 6.056-9.614s-2.19 1.43-3.925 2.363c-1.812 1.06-3.061 1.67-3.061 1.67s3.067-5.733 4.61-8.56c1.094-1.74 4.893-8.302 4.893-8.302s-1.194.738-2.104 1.263c-.873.563-2.247 1.242-3.89 2.179-1.643.936-9.509 5.65-17.48 10.475-7.973 4.825-15.928 8.74-15.928 8.74l1.18-2.011 1.204-2.178-18.394 9.541-11.413 5.534zm37.902-20.431l4.997-2.438-1.506 2.425-.946 1.606s35.37-20.633 38.074-22.292c2.16-1.43 2.546-1.577 2.546-1.577L70.13 37.783l3.656-2.113 3.89-2.135-5.455 8.735-5.89 9.768 11.745-7.2L112.4 25.02s-1.014 2.403-1.521 3.285c-.407.848-1.37 3.147-1.37 3.147l12.985-8.335 16.332-10.257 4.729-3.15s-5.916 2.944-13.53 6.753c-7.614 3.809-13.843 6.903-13.843 6.903l1.29-3.18.829-2.022s-36.513 21.49-37.854 22.33c-.392.246-3.293 1.878-3.293 1.878L86.715 26.8s-3.296 1.762-4.71 2.426c-1.484.844-4.048 2.094-4.048 2.094s5.837-9.407 6.482-10.403c1.275-1.968 7.07-10.923 7.07-10.923s-25.294 15.298-25.854 15.72c-.458.344-12.673 7.462-12.673 7.462l-5.766 3.37 1.068-2.68 1.298-2.918-10.173 6.625-14.469 9.468-10.222 6.524z" fill="#5568ef"/>
</svg>